<svg width="50" height="50" viewBox="0 0 50 50" fill="none" xmlns="http://www.w3.org/2000/svg">
<path d="M24.925 14.5209C24.925 14.5209 18.5187 15.1584 15.1646 12.3646C11.8104 9.56881 12.575 4.22923 12.575 4.22923C12.575 4.22923 18.9812 3.59173 22.3375 6.38548C25.6917 9.18131 24.925 14.5209 24.925 14.5209V14.5209Z" stroke="white" stroke-width="2" stroke-linecap="round" stroke-linejoin="round"/>
<path d="M25 29.1667H10.4167L14.5833 45.8334H35.4167L39.5833 29.1667H25Z" fill="white"/>
<path d="M25.075 14.5209C25.075 14.5209 31.4812 15.1584 34.8354 12.3646C38.1896 9.56881 37.425 4.22923 37.425 4.22923C37.425 4.22923 31.0187 3.59173 27.6646 6.38548C24.3104 9.18131 25.075 14.5209 25.075 14.5209Z" fill="white"/>
<path d="M39.5833 29.1667C40.1359 29.1667 40.6658 28.9472 41.0565 28.5565C41.4472 28.1658 41.6667 27.6359 41.6667 27.0834V22.9167C41.6667 22.3642 41.4472 21.8343 41.0565 21.4436C40.6658 21.0529 40.1359 20.8334 39.5833 20.8334H10.4167C9.86413 20.8334 9.33422 21.0529 8.94352 21.4436C8.55282 21.8343 8.33333 22.3642 8.33333 22.9167V27.0834C8.33333 27.6359 8.55282 28.1658 8.94352 28.5565C9.33422 28.9472 9.86413 29.1667 10.4167 29.1667M39.5833 29.1667H10.4167M39.5833 29.1667L35.4167 45.8334H14.5833L10.4167 29.1667M39.5833 29.1667H25H10.4167M25.075 14.5209C25.075 14.5209 31.4812 15.1584 34.8354 12.3646C38.1896 9.56881 37.425 4.22923 37.425 4.22923C37.425 4.22923 31.0187 3.59173 27.6646 6.38548C24.3104 9.18131 25.075 14.5209 25.075 14.5209Z" stroke="white" stroke-width="2" stroke-linecap="round" stroke-linejoin="round"/>
</svg>
